<svg width="27.000000" height="20.000000" viewBox="0 0 27 20" fill="none" xmlns="http://www.w3.org/2000/svg" xmlns:xlink="http://www.w3.org/1999/xlink">
	<desc>
			Created with Pixso.
	</desc>
	<defs>
		<clipPath id="clip0_461">
			<rect id="Icon" rx="0.000000" width="14.976562" height="14.976562" transform="translate(6.011719 2.511726)" fill="white" fill-opacity="0"/>
		</clipPath>
		<clipPath id="clip0_460">
			<rect id="Addon" rx="0.000000" width="26.500000" height="19.500000" transform="translate(0.250000 0.250000)" fill="white" fill-opacity="0"/>
		</clipPath>
	</defs>
	<g clip-path="url(#clip0_460)">
		<rect id="Icon" rx="0.000000" width="14.976562" height="14.976562" transform="translate(6.011719 2.511726)" fill="#FFFFFF" fill-opacity="0"/>
		<g clip-path="url(#clip0_461)">
			<path id="Vector" d="M19.37 14.84L16.62 12.08C17.28 11.2 17.64 10.13 17.64 9.02C17.64 6.2 15.34 3.9 12.52 3.9C9.7 3.9 7.4 6.2 7.4 9.02C7.4 11.84 9.7 14.14 12.52 14.14C13.63 14.14 14.7 13.78 15.58 13.12L18.34 15.88C18.48 16 18.66 16.07 18.85 16.06C19.04 16.06 19.21 15.98 19.35 15.85C19.48 15.71 19.56 15.54 19.56 15.35C19.57 15.16 19.5 14.98 19.37 14.84ZM8.86 9.02C8.86 8.3 9.08 7.59 9.48 6.99C9.88 6.39 10.45 5.92 11.12 5.64C11.79 5.37 12.52 5.29 13.23 5.43C13.94 5.58 14.59 5.92 15.11 6.44C15.62 6.95 15.97 7.6 16.11 8.31C16.25 9.02 16.17 9.75 15.9 10.42C15.62 11.09 15.15 11.66 14.55 12.06C13.95 12.46 13.24 12.68 12.52 12.68C11.55 12.68 10.62 12.29 9.94 11.6C9.25 10.92 8.86 9.99 8.86 9.02Z" fill="#2D3748" fill-opacity="1.000000" fill-rule="nonzero"/>
		</g>
	</g>
</svg>
