<svg width="15.000000" height="15.000000" viewBox="0 0 15 15" fill="none" xmlns="http://www.w3.org/2000/svg" xmlns:xlink="http://www.w3.org/1999/xlink">
	<desc>
			Created with Pixso.
	</desc>
	<defs>
		<clipPath id="clip0_190">
			<rect id="delete" rx="0.000000" width="14.499999" height="14.499999" transform="translate(0.250000 0.250000)" fill="white" fill-opacity="0"/>
		</clipPath>
	</defs>
	<g clip-path="url(#clip0_190)">
		<path id="Vector" d="M3.75 11.87C3.75 12.56 4.31 13.12 5 13.12L10 13.12C10.68 13.12 11.25 12.56 11.25 11.87L11.25 5.62C11.25 4.93 10.68 4.37 10 4.37L5 4.37C4.31 4.37 3.75 4.93 3.75 5.62L3.75 11.87ZM11.25 2.5L9.68 2.5L9.24 2.05C9.13 1.94 8.96 1.87 8.8 1.87L6.19 1.87C6.03 1.87 5.86 1.94 5.75 2.05L5.31 2.5L3.75 2.5C3.4 2.5 3.12 2.78 3.12 3.12C3.12 3.46 3.4 3.75 3.75 3.75L11.25 3.75C11.59 3.75 11.87 3.46 11.87 3.12C11.87 2.78 11.59 2.5 11.25 2.5Z" fill="#E53E3E" fill-opacity="1.000000" fill-rule="nonzero"/>
	</g>
</svg>
