<svg width="12.000000" height="12.000000" viewBox="0 0 12 12" fill="none" xmlns="http://www.w3.org/2000/svg" xmlns:xlink="http://www.w3.org/1999/xlink">
	<desc>
			Created with Pixso.
	</desc>
	<defs>
		<clipPath id="clip0_481">
			<rect id="IONIcon/N/notifications/default" rx="0.000000" width="11.976560" height="11.976560" transform="translate(0.011719 0.011719)" fill="white" fill-opacity="0"/>
		</clipPath>
	</defs>
	<rect id="IONIcon/N/notifications/default" rx="0.000000" width="11.976560" height="11.976560" transform="translate(0.011719 0.011719)" fill="#FFFFFF" fill-opacity="0"/>
	<g clip-path="url(#clip0_481)">
		<path id="Vector" d="M10.31 7.99C10.27 7.95 10.23 7.9 10.19 7.86C9.68 7.23 9.37 6.86 9.37 5.09C9.37 4.18 9.15 3.43 8.72 2.86C8.4 2.45 7.97 2.13 7.4 1.9C7.4 1.9 7.39 1.89 7.38 1.88C7.18 1.2 6.62 0.74 6 0.74C5.37 0.74 4.81 1.2 4.61 1.88C4.6 1.89 4.59 1.89 4.59 1.9C3.27 2.44 2.62 3.49 2.62 5.09C2.62 6.86 2.31 7.23 1.8 7.85C1.76 7.9 1.72 7.95 1.68 7.99C1.58 8.11 1.52 8.26 1.5 8.42C1.48 8.57 1.5 8.73 1.57 8.88C1.72 9.18 2.02 9.37 2.38 9.37L9.62 9.37C9.97 9.37 10.27 9.18 10.42 8.88C10.49 8.73 10.51 8.58 10.49 8.42C10.47 8.26 10.41 8.12 10.31 7.99Z" fill="#FFFFFF" fill-opacity="1.000000" fill-rule="nonzero"/>
		<path id="Vector" d="M6 11.25C6.33 11.24 6.67 11.15 6.96 10.98C7.25 10.81 7.49 10.56 7.65 10.26C7.65 10.24 7.66 10.23 7.66 10.21C7.66 10.19 7.65 10.18 7.64 10.17C7.63 10.15 7.62 10.14 7.61 10.13C7.59 10.12 7.58 10.12 7.56 10.12L4.43 10.12C4.41 10.12 4.4 10.12 4.38 10.13C4.37 10.14 4.36 10.15 4.35 10.17C4.34 10.18 4.33 10.19 4.33 10.21C4.33 10.23 4.34 10.24 4.34 10.26C4.5 10.56 4.74 10.81 5.03 10.98C5.32 11.15 5.66 11.24 6 11.25Z" fill="#FFFFFF" fill-opacity="1.000000" fill-rule="nonzero"/>
	</g>
</svg>
