<svg width="12.000000" height="12.000000" viewBox="0 0 12 12" fill="none" xmlns="http://www.w3.org/2000/svg" xmlns:xlink="http://www.w3.org/1999/xlink">
	<desc>
			Created with Pixso.
	</desc>
	<defs>
		<clipPath id="clip0_480">
			<rect id="IONIcon/S/settings/sharp" rx="0.000000" width="11.976560" height="11.976560" transform="translate(0.011719 0.011719)" fill="white" fill-opacity="0"/>
		</clipPath>
	</defs>
	<rect id="IONIcon/S/settings/sharp" rx="0.000000" width="11.976560" height="11.976560" transform="translate(0.011719 0.011719)" fill="#FFFFFF" fill-opacity="0"/>
	<g clip-path="url(#clip0_480)">
		<path id="Vector" d="M6 4.12C5.62 4.12 5.26 4.23 4.95 4.44C4.65 4.64 4.4 4.93 4.26 5.28C4.12 5.62 4.08 6 4.16 6.36C4.23 6.72 4.41 7.06 4.67 7.32C4.93 7.58 5.27 7.76 5.63 7.83C5.99 7.91 6.37 7.87 6.71 7.73C7.06 7.59 7.35 7.35 7.55 7.04C7.76 6.73 7.87 6.37 7.87 6C7.87 5.5 7.67 5.02 7.32 4.67C6.97 4.32 6.49 4.12 6 4.12ZM10.04 6C10.04 6.17 10.03 6.35 10 6.52L11.15 7.41C11.2 7.45 11.23 7.51 11.24 7.57C11.25 7.64 11.24 7.7 11.21 7.76L10.13 9.62C10.1 9.68 10.04 9.72 9.98 9.74C9.92 9.76 9.86 9.76 9.8 9.74L8.45 9.2C8.18 9.41 7.87 9.59 7.54 9.73L7.34 11.15C7.33 11.22 7.3 11.28 7.25 11.32C7.2 11.36 7.14 11.38 7.07 11.39L4.92 11.39C4.85 11.38 4.79 11.36 4.74 11.32C4.69 11.28 4.66 11.22 4.65 11.16L4.45 9.74C4.12 9.6 3.81 9.42 3.54 9.21L2.19 9.75C2.13 9.77 2.07 9.77 2.01 9.75C1.95 9.73 1.89 9.68 1.86 9.63L0.78 7.77C0.75 7.71 0.74 7.65 0.75 7.58C0.76 7.52 0.79 7.46 0.84 7.42L1.99 6.53C1.96 6.35 1.95 6.17 1.95 6C1.95 5.82 1.96 5.64 1.99 5.47L0.84 4.58C0.79 4.54 0.76 4.48 0.75 4.42C0.74 4.35 0.75 4.29 0.78 4.23L1.86 2.37C1.89 2.31 1.95 2.27 2.01 2.25C2.07 2.23 2.13 2.23 2.19 2.25L3.54 2.79C3.81 2.58 4.12 2.4 4.45 2.26L4.65 0.84C4.66 0.77 4.69 0.71 4.74 0.67C4.79 0.63 4.85 0.61 4.92 0.6L7.07 0.6C7.14 0.61 7.2 0.63 7.25 0.67C7.3 0.71 7.33 0.77 7.34 0.83L7.54 2.25C7.87 2.39 8.18 2.57 8.46 2.78L9.8 2.25C9.86 2.22 9.92 2.22 9.98 2.24C10.04 2.26 10.1 2.31 10.13 2.36L11.21 4.22C11.24 4.28 11.25 4.35 11.24 4.41C11.23 4.47 11.2 4.53 11.15 4.57L10 5.46C10.03 5.64 10.04 5.82 10.04 6Z" fill="#FFFFFF" fill-opacity="1.000000" fill-rule="nonzero"/>
	</g>
</svg>
