<svg width="15" height="15" viewBox="0 0 15 15" fill="none" xmlns="http://www.w3.org/2000/svg">
<g clip-path="url(#clip0_0_110)">
<path d="M7.50004 12.75C8.14437 12.75 8.66671 12.2276 8.66671 11.5833C8.66671 10.939 8.14437 10.4166 7.50004 10.4166C6.85571 10.4166 6.33337 10.939 6.33337 11.5833C6.33337 12.2276 6.85571 12.75 7.50004 12.75Z" fill="#A0AEC0"/>
<path d="M7.50004 2.25C6.85837 2.25 6.33337 2.775 6.33337 3.41667V8.08333C6.33337 8.725 6.85837 9.25 7.50004 9.25C8.14171 9.25 8.66671 8.725 8.66671 8.08333V3.41667C8.66671 2.775 8.14171 2.25 7.50004 2.25Z" fill="#A0AEC0"/>
</g>
<defs>
<clipPath id="clip0_0_110">
<rect width="14" height="14" fill="white" transform="translate(0.500061 0.5)"/>
</clipPath>
</defs>
</svg>
