<svg width="12.000000" height="12.000000" viewBox="0 0 12 12" fill="none" xmlns="http://www.w3.org/2000/svg" xmlns:xlink="http://www.w3.org/1999/xlink">
	<desc>
			Created with Pixso.
	</desc>
	<defs>
		<clipPath id="clip0_478">
			<rect id="IONIcon/P/person/default" rx="0.000000" width="11.976562" height="11.976562" transform="translate(0.011719 0.011719)" fill="white" fill-opacity="0"/>
		</clipPath>
	</defs>
	<g clip-path="url(#clip0_478)">
		<path id="Vector" d="M7.79 1.51C7.34 1.02 6.7 0.74 6 0.74C5.29 0.74 4.65 1.01 4.2 1.5C3.74 2 3.51 2.67 3.57 3.4C3.67 4.83 4.76 5.99 6 5.99C7.23 5.99 8.32 4.83 8.42 3.4C8.48 2.68 8.25 2.01 7.79 1.51Z" fill="#FFFFFF" fill-opacity="1.000000" fill-rule="nonzero"/>
		<path id="Vector" d="M10.12 11.24L1.87 11.24C1.76 11.25 1.65 11.22 1.56 11.18C1.46 11.13 1.37 11.07 1.3 10.98C1.15 10.8 1.09 10.55 1.13 10.3C1.33 9.2 1.95 8.28 2.92 7.63C3.78 7.06 4.87 6.74 5.99 6.74C7.12 6.74 8.21 7.06 9.07 7.63C10.04 8.28 10.66 9.2 10.86 10.3C10.9 10.55 10.84 10.8 10.69 10.98C10.62 11.07 10.53 11.13 10.43 11.18C10.33 11.22 10.23 11.25 10.12 11.24Z" fill="#FFFFFF" fill-opacity="1.000000" fill-rule="nonzero"/>
	</g>
</svg>
